<svg xmlns="http://www.w3.org/2000/svg" viewBox="0 0 398.76 59.85"><defs><style>.cls-1{fill:#fff;}</style></defs><title>britecore-logo</title><g id="Layer_2" data-name="Layer 2"><g id="Meme_Edit_Group" data-name="Meme Edit Group"><path class="cls-1" d="M91.54,5.76h18a24,24,0,0,1,7.56,1,14.5,14.5,0,0,1,5,2.77,10.22,10.22,0,0,1,2.81,4,13.07,13.07,0,0,1,.86,4.72,9.47,9.47,0,0,1-.82,4.06,12.64,12.64,0,0,1-1.95,3,9.64,9.64,0,0,1-2.34,2,8.57,8.57,0,0,1-2.09.94,17.08,17.08,0,0,1,2.88,1.07,11.74,11.74,0,0,1,4.9,4A11.09,11.09,0,0,1,128.33,40,13.73,13.73,0,0,1,127,46.37a11.48,11.48,0,0,1-3.74,4.24A16.53,16.53,0,0,1,117.35,53a37.31,37.31,0,0,1-7.81.75h-18Zm17,19.22a9.89,9.89,0,0,0,2.42-.29A6.42,6.42,0,0,0,113,23.8a4.78,4.78,0,0,0,1.48-1.66,5.29,5.29,0,0,0,.58-2.56,5.47,5.47,0,0,0-.58-2.63A4.71,4.71,0,0,0,113,15.3a6.21,6.21,0,0,0-2.13-.87,11.79,11.79,0,0,0-2.34-.25h-6.4V25Zm.65,20.45a21,21,0,0,0,2.59-.18,7.78,7.78,0,0,0,2.67-.83,5.62,5.62,0,0,0,2-1.87,6,6,0,0,0,.83-3.38,5.82,5.82,0,0,0-.79-3.17,5.68,5.68,0,0,0-2-1.91,8.6,8.6,0,0,0-2.66-.94,16.49,16.49,0,0,0-2.67-.25h-7.05V45.43Z"/><path class="cls-1" d="M134.89,20h9.93l.36,4.25A15.59,15.59,0,0,1,148.75,21a10,10,0,0,1,5.86-1.58,17.18,17.18,0,0,1,2.34.14,9.11,9.11,0,0,1,1.91.5l-1.65,9.15a12.32,12.32,0,0,0-3.75-.51,8.19,8.19,0,0,0-5.94,2.2,8.29,8.29,0,0,0-2.27,6.23v16.7H134.89Z"/><path class="cls-1" d="M163.11,5.76H174.2v9.29H163.11ZM163.47,20h10.37V53.78H163.47Z"/><path class="cls-1" d="M184.28,28.15H179V20h5.33V8.93h10.36V20h8.72v8.14h-8.72V41.47a6.32,6.32,0,0,0,1,3.78,3.51,3.51,0,0,0,3.06,1.33,6.39,6.39,0,0,0,2.73-.54,13.56,13.56,0,0,0,2.16-1.26l4.18,6.34A16.81,16.81,0,0,1,197.09,55,15.4,15.4,0,0,1,191,54a10.12,10.12,0,0,1-4-2.88,11.26,11.26,0,0,1-2.16-4.43,23.78,23.78,0,0,1-.64-5.76Z"/><path class="cls-1" d="M242.09,50.11c-.38.24-1,.64-1.73,1.19a16.08,16.08,0,0,1-3,1.62,27.69,27.69,0,0,1-4.36,1.4,24.41,24.41,0,0,1-5.76.61,21.49,21.49,0,0,1-7.78-1.33,16.63,16.63,0,0,1-5.86-3.71,15.62,15.62,0,0,1-3.68-5.72,20.79,20.79,0,0,1-1.25-7.38,19.82,19.82,0,0,1,1.18-6.8,17.14,17.14,0,0,1,3.42-5.73,16.7,16.7,0,0,1,5.47-3.92,17.6,17.6,0,0,1,7.35-1.48,17,17,0,0,1,7.2,1.44,14.94,14.94,0,0,1,5.22,4,17.32,17.32,0,0,1,3.2,6.12,26.86,26.86,0,0,1,1.08,7.81V40H218.76a6.47,6.47,0,0,0,2.42,4.79,9.46,9.46,0,0,0,6.44,2,15.46,15.46,0,0,0,6.55-1.19,22.4,22.4,0,0,0,3.67-2ZM233,33.33a6,6,0,0,0-.43-2.19,6.41,6.41,0,0,0-1.3-2.05,6.72,6.72,0,0,0-2.16-1.55,7.13,7.13,0,0,0-3.09-.61,7.66,7.66,0,0,0-3.17.61,7.12,7.12,0,0,0-2.27,1.55,6.64,6.64,0,0,0-1.37,2.05,5.65,5.65,0,0,0-.47,2.19Z"/><path class="cls-1" d="M292.92,44.93a22,22,0,0,1-3.67,3.92,25.48,25.48,0,0,1-4.79,3.2,25.89,25.89,0,0,1-5.68,2.16,25.29,25.29,0,0,1-6.38.8,25.93,25.93,0,0,1-10-1.88,22.94,22.94,0,0,1-7.82-5.22A23.49,23.49,0,0,1,249.51,40a27.13,27.13,0,0,1-1.8-10,27.33,27.33,0,0,1,1.8-10A23.56,23.56,0,0,1,262.43,6.51a25.38,25.38,0,0,1,10.12-2A26.38,26.38,0,0,1,284.25,7,22.1,22.1,0,0,1,292.56,14l-7.41,7.13A17.84,17.84,0,0,0,280,16.31,13.05,13.05,0,0,0,273,14.47a13.87,13.87,0,0,0-5.83,1.19,12.67,12.67,0,0,0-4.39,3.27A15.09,15.09,0,0,0,260,23.8a18.34,18.34,0,0,0,0,11.77,14.21,14.21,0,0,0,2.78,4.75,13,13,0,0,0,4.32,3.17,13.62,13.62,0,0,0,5.68,1.15,16.61,16.61,0,0,0,4.5-.54,13.09,13.09,0,0,0,6-3.53c.76-.79,1.51-1.59,2.23-2.41Z"/><path class="cls-1" d="M297,36.86a18.46,18.46,0,0,1,1.33-7A17.64,17.64,0,0,1,302,24.12a17,17,0,0,1,5.72-3.85,18.81,18.81,0,0,1,7.38-1.41,18.51,18.51,0,0,1,7.34,1.41,17,17,0,0,1,5.69,3.85,17.64,17.64,0,0,1,3.71,5.72,19.19,19.19,0,0,1,0,14,17.35,17.35,0,0,1-9.4,9.61,18.17,18.17,0,0,1-7.34,1.44,18.47,18.47,0,0,1-7.38-1.44A17.34,17.34,0,0,1,302,49.61a17.58,17.58,0,0,1-3.71-5.73A18.39,18.39,0,0,1,297,36.86Zm18.14,9.07a7.41,7.41,0,0,0,6-2.8,8.83,8.83,0,0,0,1.55-2.92,11.47,11.47,0,0,0,0-6.7,8.45,8.45,0,0,0-1.55-2.88,7.87,7.87,0,0,0-2.55-2,7.56,7.56,0,0,0-3.46-.76,7.75,7.75,0,0,0-3.49.76,7.32,7.32,0,0,0-2.56,2,9.4,9.4,0,0,0-1.55,2.88,10.66,10.66,0,0,0,0,6.7,9.85,9.85,0,0,0,1.55,2.92,7.2,7.2,0,0,0,2.56,2A7.88,7.88,0,0,0,315.1,45.93Z"/><path class="cls-1" d="M339.29,20h9.94l.36,4.25A15.52,15.52,0,0,1,353.15,21,10.08,10.08,0,0,1,359,19.37a17.29,17.29,0,0,1,2.34.14,9.27,9.27,0,0,1,1.91.5l-1.66,9.15a12.25,12.25,0,0,0-3.74-.51,8.19,8.19,0,0,0-5.94,2.2,8.29,8.29,0,0,0-2.27,6.23v16.7H339.29Z"/><path class="cls-1" d="M398,50.11c-.38.24-1,.64-1.72,1.19a16.54,16.54,0,0,1-3,1.62,27.69,27.69,0,0,1-4.36,1.4,24.41,24.41,0,0,1-5.76.61,21.49,21.49,0,0,1-7.78-1.33,16.63,16.63,0,0,1-5.86-3.71,15.47,15.47,0,0,1-3.67-5.72,20.57,20.57,0,0,1-1.27-7.38,19.82,19.82,0,0,1,1.19-6.8,17.14,17.14,0,0,1,3.42-5.73,16.6,16.6,0,0,1,5.47-3.92,17.64,17.64,0,0,1,7.35-1.48,16.92,16.92,0,0,1,7.2,1.44,14.94,14.94,0,0,1,5.22,4,17.32,17.32,0,0,1,3.2,6.12,26.86,26.86,0,0,1,1.08,7.81V40H374.71a6.47,6.47,0,0,0,2.42,4.79,9.48,9.48,0,0,0,6.44,2,15.46,15.46,0,0,0,6.55-1.19,23,23,0,0,0,3.68-2ZM389,33.33a6,6,0,0,0-.43-2.19,6.41,6.41,0,0,0-1.3-2.05,6.72,6.72,0,0,0-2.16-1.55,7.13,7.13,0,0,0-3.09-.61,7.66,7.66,0,0,0-3.17.61,7.12,7.12,0,0,0-2.27,1.55,6.82,6.82,0,0,0-1.37,2.05,5.65,5.65,0,0,0-.47,2.19Z"/><path class="cls-1" d="M43.65,26.05l11.1,1.47c-1.33-6.11-7.58-10.91-15.43-11.77l1.26,7.34A3.6,3.6,0,0,0,43.65,26.05Z"/><path class="cls-1" d="M33,23.09l1.26-7.34c-7.85.86-14.1,5.66-15.43,11.77L30,26.05A3.61,3.61,0,0,0,33,23.09Z"/><path class="cls-1" d="M30,33.8l-11.1-1.47c1.33,6.11,7.58,10.91,15.43,11.77L33,36.76A3.61,3.61,0,0,0,30,33.8Z"/><path class="cls-1" d="M43.65,33.8a3.6,3.6,0,0,0-3.07,3L39.32,44.1c7.85-.86,14.1-5.66,15.43-11.77Z"/><path class="cls-1" d="M54.75,27.52l-11.1-1.47a3.6,3.6,0,0,1-3.07-3l-1.26-7.34C47.17,16.61,53.42,21.41,54.75,27.52Z"/><path class="cls-1" d="M34.28,15.75,33,23.09a3.61,3.61,0,0,1-3.07,3l-11.1,1.47C20.18,21.41,26.43,16.61,34.28,15.75Z"/><path class="cls-1" d="M18.85,32.33,30,33.8a3.61,3.61,0,0,1,3.07,3l1.26,7.34C26.43,43.24,20.18,38.44,18.85,32.33Z"/><path class="cls-1" d="M39.32,44.1l1.26-7.34a3.6,3.6,0,0,1,3.07-3l11.1-1.47C53.42,38.44,47.17,43.24,39.32,44.1Z"/><path class="cls-1" d="M36.8,0C16.48,0,0,13.4,0,29.93S16.48,59.85,36.8,59.85s36.8-13.4,36.8-29.92S57.12,0,36.8,0ZM58.49,31.84c-1.1,8.47-9.42,15.19-19.8,15.92L36.8,58.84,34.9,47.76C24.53,47,16.21,40.31,15.11,31.84L.7,29.93,15.11,28c1.1-8.48,9.42-15.19,19.79-15.93L36.8,1l1.89,11.08c10.38.74,18.7,7.45,19.8,15.93L72.9,29.93Z"/></g></g></svg>